<?xml version="1.0" encoding="utf-8"?>
<!-- Generator: Adobe Illustrator 26.4.0, SVG Export Plug-In . SVG Version: 6.00 Build 0)  -->
<svg version="1.1" id="레이어_1" xmlns="http://www.w3.org/2000/svg" xmlns:xlink="http://www.w3.org/1999/xlink" x="0px"
	 y="0px" viewBox="0 0 68 68" style="enable-background:new 0 0 68 68;" xml:space="preserve">
<style type="text/css">
	.st0{fill:#FFFFFF;}
	.st1{fill:#8B92C7;}
	.st2{fill:#BBC3E3;}
	.st3{fill:#1D2087;}
	.st4{fill:none;stroke:#FFFFFF;stroke-width:1.3;stroke-miterlimit:10;}
</style>
	<g>
		<polygon class="st1" points="20.05,9.37 11.11,6.67 11.11,66.37 20.05,66.37 		"/>
		<polygon class="st2" points="7.25,14.79 0,12.6 0,66.37 7.25,66.37 		"/>
		<polygon class="st3" points="67.13,15.76 23.64,0.48 23.64,66.48 67.13,66.48 		"/>
		<path class="st4" d="M22.43,39.19h9.14c0,0,0.38-0.12,0.55-1.21c0.17-1.1,0.89-8.12,1.4-8.23c0.51-0.11,0.97,4.17,1.18,8.56
			c0,0,0.85,19.32,1.14,19.43c0,0,0.63,1.54,1.06-2.2c0,0,1.69-33.48,2.41-34.14c0,0,0.21-0.66,0.51,1.65c0,0,1.91,24.81,2.46,25.8
			c0,0,0.59,2.09,1.14-0.66c0,0,1.4-14.27,1.65-14.82c0.25-0.55,0.8-1.87,1.44-0.22c0,0,1.14,7.79,1.44,9.44
			c0.29,1.65,1.06,2.31,1.57-0.44c0,0,0.76-7.14,1.1-7.47c0,0,0.89-1.32,1.19,0.22c0,0,0.64,5.71,1.1,6.92
			c0.46,1.21,0.85,1.1,1.18-0.11c0,0,0.72-4.83,0.85-4.72c0,0,0.38-1.21,1.06,2.09c0,0,0.64,1.97,1.1,1.54c0,0,0.42-0.22,0.72-1.32
			c0,0,2.37,0.22,4.44,0.22h5.17"/>
	</g>
</svg>
